<?xml version="1.0" encoding="utf-8"?>
<!-- Generator: Adobe Illustrator 16.0.4, SVG Export Plug-In . SVG Version: 6.00 Build 0)  -->
<!DOCTYPE svg PUBLIC "-//W3C//DTD SVG 1.1//EN" "http://www.w3.org/Graphics/SVG/1.1/DTD/svg11.dtd">
<svg version="1.1" id="Layer_1" xmlns="http://www.w3.org/2000/svg" xmlns:xlink="http://www.w3.org/1999/xlink" x="0px" y="0px"
	 width="94px" height="230px" viewBox="0 0 94 230" enable-background="new 0 0 94 230" xml:space="preserve">
<g display="none">
	<path display="inline" fill="#F0F0F2" d="M76.707,187.908c-7.304,0-13.309,5.639-13.91,12.795c-0.4-0.037-0.803-0.062-1.213-0.062
		c-0.408,0-0.809,0.025-1.211,0.062c-0.602-7.156-6.607-12.795-13.917-12.795c-7.304,0-13.309,5.639-13.91,12.795
		c-0.4-0.037-0.804-0.062-1.215-0.062c-0.408,0-0.811,0.025-1.209,0.062c-0.603-7.156-6.609-12.795-13.916-12.795
		c-7.705,0-13.979,6.264-13.979,13.977c0,7.707,6.273,13.973,13.979,13.973c0.41,0,0.811-0.027,1.213-0.064
		c0.6,7.158,6.607,12.795,13.912,12.795c7.31,0,13.313-5.637,13.915-12.795c0.402,0.037,0.805,0.064,1.21,0.064
		c0.411,0,0.815-0.027,1.214-0.064c0.602,7.158,6.608,12.795,13.915,12.795c7.305,0,13.314-5.637,13.912-12.795
		c0.405,0.037,0.805,0.064,1.211,0.064c7.71,0,13.979-6.266,13.979-13.973C90.686,194.172,84.417,187.908,76.707,187.908z
		 M16.206,213.375c-6.336,0-11.487-5.158-11.487-11.49c0-6.338,5.151-11.494,11.487-11.494c6.087,0,11.07,4.762,11.456,10.752
		c-5.521,1.51-9.692,6.309-10.235,12.164C17.022,213.348,16.616,213.375,16.206,213.375z M27.528,203.785
		c-0.699,4.156-3.627,7.553-7.514,8.924C20.711,208.557,23.637,205.158,27.528,203.785z M31.331,226.104
		c-6.086,0-11.071-4.762-11.45-10.75c5.519-1.51,9.688-6.309,10.231-12.164c0.402-0.041,0.807-0.064,1.219-0.064
		c0.411,0,0.818,0.023,1.221,0.064c0.545,5.855,4.715,10.654,10.235,12.164C42.404,221.342,37.417,226.104,31.331,226.104z
		 M35.139,203.785c3.89,1.373,6.813,4.771,7.513,8.924C38.763,211.34,35.84,207.941,35.139,203.785z M46.456,213.375
		c-0.411,0-0.815-0.027-1.216-0.068c-0.547-5.852-4.716-10.654-10.235-12.164c0.383-5.99,5.368-10.752,11.451-10.752
		c6.089,0,11.072,4.762,11.455,10.752c-5.519,1.51-9.688,6.309-10.231,12.164C47.275,213.348,46.867,213.375,46.456,213.375z
		 M57.779,203.785c-0.699,4.156-3.627,7.553-7.512,8.924C50.963,208.557,53.893,205.158,57.779,203.785z M61.584,226.104
		c-6.086,0-11.072-4.762-11.455-10.75c5.521-1.51,9.695-6.309,10.24-12.164c0.398-0.041,0.807-0.064,1.215-0.064
		c0.41,0,0.82,0.023,1.221,0.064c0.545,5.855,4.715,10.654,10.236,12.164C72.654,221.342,67.67,226.104,61.584,226.104z
		 M65.393,203.785c3.887,1.373,6.816,4.771,7.512,8.924C69.016,211.34,66.091,207.941,65.393,203.785z M76.707,213.375
		c-0.406,0-0.813-0.027-1.215-0.068c-0.543-5.852-4.717-10.652-10.234-12.164c0.383-5.99,5.367-10.752,11.449-10.752
		c6.338,0,11.494,5.156,11.494,11.494C88.201,208.217,83.045,213.375,76.707,213.375z"/>
	<path display="inline" fill="#F0F0F2" d="M35.265,151.727c-1.076-0.441-2.285-0.666-3.592-0.666h-7.776
		c-0.448,0-0.834,0.158-1.146,0.471c-0.308,0.309-0.47,0.703-0.47,1.145v23.4c0,0.465,0.163,0.873,0.471,1.182
		c0.308,0.307,0.704,0.471,1.146,0.471h7.776c1.305,0,2.513-0.225,3.592-0.668c1.078-0.445,2.019-1.07,2.794-1.857
		c0.776-0.789,1.383-1.736,1.802-2.816c0.417-1.074,0.628-2.256,0.628-3.512v-9c0-1.256-0.211-2.436-0.628-3.512
		c-0.42-1.08-1.027-2.021-1.805-2.801C37.279,152.787,36.339,152.17,35.265,151.727z M37.221,159.875v8.994
		c-0.022,1.73-0.523,3.064-1.529,4.082c-1.004,1.016-2.318,1.508-4.019,1.508h-6.124v-20.131h6.124c1.701,0,3.017,0.486,4.021,1.49
		C36.699,156.824,37.199,158.154,37.221,159.875z"/>
	<path display="inline" fill="#F0F0F2" d="M45.923,151.322c-0.314,0.297-0.48,0.703-0.48,1.174v23.76
		c0,0.465,0.163,0.873,0.471,1.182c0.308,0.307,0.704,0.471,1.146,0.471c0.465,0,0.874-0.164,1.182-0.471
		c0.308-0.309,0.471-0.717,0.471-1.182v-23.76c0-0.471-0.166-0.877-0.48-1.174C47.624,150.75,46.563,150.719,45.923,151.322z"/>
	<path display="inline" fill="#F0F0F2" d="M67.95,154.328c0.465,0,0.874-0.164,1.182-0.471c0.312-0.312,0.471-0.711,0.471-1.182
		s-0.166-0.877-0.48-1.174c-0.311-0.293-0.705-0.441-1.172-0.441H55.53c-0.443,0-0.825,0.148-1.136,0.441
		c-0.314,0.297-0.48,0.703-0.48,1.174v23.58c0,0.465,0.163,0.873,0.471,1.182c0.308,0.307,0.704,0.471,1.146,0.471
		c0.465,0,0.874-0.164,1.182-0.471c0.308-0.309,0.471-0.717,0.471-1.182v-10.66h10.264c0.473,0,0.87-0.158,1.182-0.471
		c0.308-0.309,0.471-0.717,0.471-1.182c0-0.471-0.166-0.877-0.481-1.174c-0.312-0.293-0.705-0.441-1.171-0.441H57.183v-8H67.95z"/>
	<path display="inline" fill="#F0F0F2" d="M28.998,129.549c-0.354-2.719-0.093-6.18,4.255-10.227l2.459-2.291
		c2.735-2.6,4.195-6.658,2.385-8.604L9.723,78.002c0.771,2.783-1.008,5.516-2.816,7.32L4.62,87.453
		c-4.454,4.623-4.989,10.916-0.534,15.381L28.998,129.549z"/>
	<path display="inline" fill="#F0F0F2" d="M42.847,101.854c-0.396-4.537,3.373-9.43,7.674-13.434l10.291-9.596
		c17.359-16.154,25.709-31.588,8.296-50.299L43.441,1c2.814,7.234,0.953,14.596-7.183,22.955L19.408,39.668
		c-11.07,10.91-13.616,22.59-0.071,36.971L42.847,101.854z"/>
	<path display="inline" fill="#F0F0F2" d="M49.881,134.656l2.306-2.15c2.536-2.406,3.274-5.615,0.862-8.146l-7.738-8.297
		c-0.097,2.375-1.333,3.971-3.212,5.799l-2.639,2.389c-1.967,1.795-3.754,4.965-0.643,8.244l7.823,8.387
		C46.642,138.428,47.912,136.453,49.881,134.656z"/>
	<path display="inline" fill="#F0F0F2" d="M72.891,78.271L54.834,95.07c-5.594,5.316-7.293,12.107-3.747,15.838l12.099,13.016
		c-1.126-4.936,0.529-7.914,5.087-12.24l18.921-17.643c7.758-7.746,5.588-16.357,0.188-21.768l-5.895-6.322
		C81.162,67.922,77.992,73.527,72.891,78.271z"/>
</g>
<g display="none">
	<path display="inline" fill="#2C373E" d="M76.707,187.908c-7.304,0-13.309,5.639-13.91,12.795c-0.4-0.037-0.803-0.062-1.213-0.062
		c-0.408,0-0.809,0.025-1.211,0.062c-0.602-7.156-6.607-12.795-13.917-12.795c-7.304,0-13.309,5.639-13.91,12.795
		c-0.4-0.037-0.804-0.062-1.215-0.062c-0.408,0-0.811,0.025-1.209,0.062c-0.603-7.156-6.609-12.795-13.916-12.795
		c-7.705,0-13.979,6.264-13.979,13.977c0,7.707,6.273,13.973,13.979,13.973c0.41,0,0.811-0.027,1.213-0.064
		c0.6,7.158,6.607,12.795,13.912,12.795c7.31,0,13.313-5.637,13.915-12.795c0.402,0.037,0.805,0.064,1.21,0.064
		c0.411,0,0.815-0.027,1.214-0.064c0.602,7.158,6.608,12.795,13.915,12.795c7.305,0,13.314-5.637,13.912-12.795
		c0.405,0.037,0.805,0.064,1.211,0.064c7.71,0,13.979-6.266,13.979-13.973C90.686,194.172,84.417,187.908,76.707,187.908z
		 M16.206,213.375c-6.336,0-11.487-5.158-11.487-11.49c0-6.338,5.151-11.494,11.487-11.494c6.087,0,11.07,4.762,11.456,10.752
		c-5.521,1.51-9.692,6.309-10.235,12.164C17.022,213.348,16.616,213.375,16.206,213.375z M27.528,203.785
		c-0.699,4.156-3.627,7.553-7.514,8.924C20.711,208.557,23.637,205.158,27.528,203.785z M31.331,226.104
		c-6.086,0-11.071-4.762-11.45-10.75c5.519-1.51,9.688-6.309,10.231-12.164c0.402-0.041,0.807-0.064,1.219-0.064
		c0.411,0,0.818,0.023,1.221,0.064c0.545,5.855,4.715,10.654,10.235,12.164C42.404,221.342,37.417,226.104,31.331,226.104z
		 M35.139,203.785c3.89,1.373,6.813,4.771,7.513,8.924C38.763,211.34,35.84,207.941,35.139,203.785z M46.456,213.375
		c-0.411,0-0.815-0.027-1.216-0.068c-0.547-5.852-4.716-10.654-10.235-12.164c0.383-5.99,5.368-10.752,11.451-10.752
		c6.089,0,11.072,4.762,11.455,10.752c-5.519,1.51-9.688,6.309-10.231,12.164C47.275,213.348,46.867,213.375,46.456,213.375z
		 M57.779,203.785c-0.699,4.156-3.627,7.553-7.512,8.924C50.963,208.557,53.893,205.158,57.779,203.785z M61.584,226.104
		c-6.086,0-11.072-4.762-11.455-10.75c5.521-1.51,9.695-6.309,10.24-12.164c0.398-0.041,0.807-0.064,1.215-0.064
		c0.41,0,0.82,0.023,1.221,0.064c0.545,5.855,4.715,10.654,10.236,12.164C72.654,221.342,67.67,226.104,61.584,226.104z
		 M65.393,203.785c3.887,1.373,6.816,4.771,7.512,8.924C69.016,211.34,66.091,207.941,65.393,203.785z M76.707,213.375
		c-0.406,0-0.813-0.027-1.215-0.068c-0.543-5.852-4.717-10.652-10.234-12.164c0.383-5.99,5.367-10.752,11.449-10.752
		c6.338,0,11.494,5.156,11.494,11.494C88.201,208.217,83.045,213.375,76.707,213.375z"/>
	<path display="inline" fill="#2C373E" d="M35.265,151.727c-1.076-0.442-2.285-0.667-3.592-0.667h-7.776
		c-0.448,0-0.834,0.158-1.146,0.471c-0.308,0.309-0.47,0.704-0.47,1.145v23.4c0,0.466,0.163,0.874,0.471,1.182
		s0.704,0.471,1.146,0.471h7.776c1.305,0,2.513-0.225,3.592-0.667c1.078-0.445,2.019-1.07,2.794-1.858
		c0.776-0.788,1.383-1.735,1.802-2.816c0.417-1.073,0.628-2.255,0.628-3.511v-9c0-1.256-0.211-2.437-0.628-3.512
		c-0.42-1.08-1.027-2.022-1.805-2.801C37.279,152.787,36.339,152.17,35.265,151.727z M37.221,159.875v8.993
		c-0.022,1.73-0.523,3.065-1.529,4.083c-1.004,1.015-2.318,1.508-4.019,1.508h-6.124v-20.132h6.124c1.701,0,3.017,0.487,4.021,1.491
		C36.699,156.824,37.199,158.153,37.221,159.875z"/>
	<path display="inline" fill="#2C373E" d="M45.923,151.322c-0.314,0.297-0.48,0.703-0.48,1.173v23.76
		c0,0.466,0.163,0.874,0.471,1.182s0.704,0.471,1.146,0.471c0.465,0,0.874-0.163,1.182-0.471c0.308-0.308,0.471-0.716,0.471-1.182
		v-23.76c0-0.47-0.166-0.876-0.48-1.173C47.624,150.75,46.563,150.719,45.923,151.322z"/>
	<path display="inline" fill="#2C373E" d="M67.95,154.327c0.465,0,0.874-0.163,1.182-0.471c0.312-0.312,0.471-0.71,0.471-1.182
		c0-0.47-0.166-0.876-0.48-1.173c-0.311-0.293-0.705-0.442-1.172-0.442H55.53c-0.443,0-0.825,0.149-1.136,0.442
		c-0.314,0.297-0.48,0.703-0.48,1.173v23.58c0,0.466,0.163,0.874,0.471,1.182s0.704,0.471,1.146,0.471
		c0.465,0,0.874-0.163,1.182-0.471s0.471-0.716,0.471-1.182v-10.66h10.264c0.473,0,0.87-0.158,1.182-0.47
		c0.308-0.309,0.471-0.717,0.471-1.182c0-0.471-0.166-0.877-0.481-1.175c-0.312-0.293-0.705-0.441-1.171-0.441H57.183v-8H67.95z"/>
	<path display="inline" fill="#2C373E" d="M28.998,129.549c-0.354-2.719-0.093-6.18,4.255-10.227l2.459-2.291
		c2.735-2.6,4.195-6.659,2.385-8.604L9.723,78.002c0.771,2.783-1.008,5.516-2.816,7.32L4.62,87.453
		c-4.454,4.623-4.989,10.916-0.534,15.381L28.998,129.549z"/>
	<path display="inline" fill="#2C373E" d="M42.847,101.853c-0.396-4.537,3.373-9.429,7.674-13.434l10.291-9.596
		c17.359-16.153,25.709-31.587,8.296-50.299L43.441,1c2.814,7.234,0.953,14.596-7.183,22.954L19.408,39.668
		c-11.07,10.91-13.616,22.59-0.071,36.971L42.847,101.853z"/>
	<path display="inline" fill="#2C373E" d="M49.881,134.655l2.306-2.15c2.536-2.405,3.274-5.615,0.862-8.146l-7.738-8.297
		c-0.097,2.376-1.333,3.971-3.212,5.8l-2.639,2.388c-1.967,1.795-3.754,4.965-0.643,8.245l7.823,8.387
		C46.642,138.428,47.912,136.453,49.881,134.655z"/>
	<path display="inline" fill="#2C373E" d="M72.891,78.271l-18.057,16.8c-5.594,5.316-7.293,12.107-3.747,15.838l12.099,13.016
		c-1.126-4.936,0.529-7.914,5.087-12.24L87.193,94.04c7.758-7.745,5.588-16.356,0.188-21.767l-5.895-6.322
		C81.162,67.921,77.992,73.527,72.891,78.271z"/>
</g>
<g>
	<g>
		<path fill="#E2001A" d="M35.265,151.727c-1.076-0.442-2.285-0.667-3.592-0.667h-7.776c-0.448,0-0.834,0.158-1.146,0.471
			c-0.308,0.309-0.47,0.704-0.47,1.145v23.4c0,0.466,0.163,0.874,0.471,1.182s0.704,0.471,1.146,0.471h7.776
			c1.305,0,2.513-0.225,3.592-0.667c1.078-0.445,2.019-1.07,2.794-1.858c0.776-0.788,1.383-1.735,1.802-2.816
			c0.417-1.073,0.628-2.255,0.628-3.511v-9c0-1.256-0.211-2.437-0.628-3.512c-0.42-1.08-1.027-2.022-1.805-2.801
			C37.279,152.787,36.339,152.17,35.265,151.727z M37.221,159.875v8.993c-0.022,1.73-0.523,3.065-1.529,4.083
			c-1.004,1.015-2.318,1.508-4.019,1.508h-6.124v-20.132h6.124c1.701,0,3.017,0.487,4.021,1.491
			C36.699,156.824,37.199,158.153,37.221,159.875z"/>
		<path fill="#E2001A" d="M45.923,151.322c-0.314,0.297-0.48,0.703-0.48,1.173v23.76c0,0.466,0.163,0.874,0.471,1.182
			s0.704,0.471,1.146,0.471c0.465,0,0.874-0.163,1.182-0.471c0.308-0.308,0.471-0.716,0.471-1.182v-23.76
			c0-0.47-0.166-0.876-0.48-1.173C47.624,150.75,46.563,150.719,45.923,151.322z"/>
		<path fill="#E2001A" d="M67.95,154.327c0.465,0,0.874-0.163,1.182-0.471c0.312-0.312,0.471-0.71,0.471-1.182
			c0-0.47-0.166-0.876-0.48-1.173c-0.311-0.293-0.705-0.442-1.172-0.442H55.53c-0.443,0-0.825,0.149-1.136,0.442
			c-0.314,0.297-0.48,0.703-0.48,1.173v23.58c0,0.466,0.163,0.874,0.471,1.182s0.704,0.471,1.146,0.471
			c0.465,0,0.874-0.163,1.182-0.471s0.471-0.716,0.471-1.182v-10.66h10.264c0.473,0,0.87-0.158,1.182-0.47
			c0.308-0.309,0.471-0.717,0.471-1.182c0-0.471-0.166-0.877-0.481-1.175c-0.312-0.293-0.705-0.441-1.171-0.441H57.183v-8H67.95z"/>
		<path fill="#E2001A" d="M28.998,129.549c-0.354-2.719-0.093-6.18,4.255-10.227l2.459-2.291c2.735-2.6,4.195-6.659,2.385-8.604
			L9.723,78.002c0.771,2.783-1.008,5.516-2.816,7.32L4.62,87.453c-4.454,4.623-4.989,10.916-0.534,15.381L28.998,129.549z"/>
		<path fill="#E2001A" d="M42.847,101.853c-0.396-4.537,3.373-9.429,7.674-13.434l10.291-9.596
			c17.359-16.153,25.709-31.587,8.296-50.299L43.441,1c2.814,7.234,0.953,14.596-7.183,22.954L19.408,39.668
			c-11.07,10.91-13.616,22.59-0.071,36.971L42.847,101.853z"/>
		<path fill="#E2001A" d="M49.881,134.655l2.306-2.15c2.536-2.405,3.274-5.615,0.862-8.146l-7.738-8.297
			c-0.097,2.376-1.333,3.971-3.212,5.8l-2.639,2.388c-1.967,1.795-3.754,4.965-0.643,8.245l7.823,8.387
			C46.642,138.428,47.912,136.453,49.881,134.655z"/>
		<path fill="#E2001A" d="M72.891,78.271l-18.057,16.8c-5.594,5.316-7.293,12.107-3.747,15.838l12.099,13.016
			c-1.126-4.936,0.529-7.914,5.087-12.24L87.193,94.04c7.758-7.745,5.588-16.356,0.188-21.767l-5.895-6.322
			C81.162,67.921,77.992,73.527,72.891,78.271z"/>
	</g>
	<g>
		<path id="Blue_Ring_1_" fill="#007BC0" d="M30.145,201.849c0-7.707-6.25-13.958-13.958-13.958
			c-7.708,0-13.959,6.251-13.959,13.958c0,7.713,6.251,13.96,13.959,13.96c0.407,0,0.81-0.018,1.207-0.052
			c-0.027-0.367-0.043-0.736-0.043-1.112c0-0.412,0.018-0.82,0.054-1.224c-0.399,0.041-0.807,0.062-1.218,0.062
			c-6.424,0-11.632-5.209-11.632-11.634c0-6.423,5.208-11.631,11.632-11.631c6.425,0,11.632,5.208,11.632,11.631
			c0,5.163-3.36,9.538-8.013,11.06c-0.085,0.568-0.13,1.146-0.13,1.736c0,0.241,0.008,0.481,0.021,0.719
			C25.707,213.807,30.145,208.347,30.145,201.849z"/>
		<path id="Red_Ring_1_" fill="#E2003D" d="M90.636,201.849c0,7.713-6.251,13.96-13.958,13.96c-7.298,0-13.286-5.596-13.906-12.731
			c0.83,0.087,1.634,0.259,2.402,0.511c0.838,5.601,5.668,9.895,11.504,9.895c6.424,0,11.631-5.209,11.631-11.634
			c0-6.423-5.207-11.631-11.631-11.631c-6.184,0-11.242,4.824-11.613,10.915c-0.744-0.194-1.516-0.326-2.303-0.394
			c0.566-7.19,6.58-12.849,13.916-12.849C84.385,187.891,90.636,194.142,90.636,201.849z M62.719,201.849"/>
		<path id="Green_Ring_1_" fill="#009534" d="M75.514,214.645 M61.555,203.013c5.834,0,10.663,4.296,11.504,9.896
			c0.768,0.253,1.572,0.425,2.402,0.513c-0.621-7.137-6.611-12.734-13.906-12.734c-0.407,0-0.81,0.018-1.207,0.053
			c0.029,0.365,0.044,0.737,0.044,1.109c0,0.413-0.019,0.822-0.054,1.229C60.739,203.035,61.144,203.013,61.555,203.013z
			 M73.165,215.363c-0.369,6.09-5.427,10.916-11.61,10.916c-6.424,0-11.631-5.21-11.631-11.635c0-5.16,3.359-9.535,8.012-11.057
			c0.084-0.566,0.128-1.148,0.128-1.739c0-0.24-0.006-0.479-0.021-0.716c-6.009,1.556-10.447,7.017-10.447,13.512
			c0,7.711,6.249,13.96,13.959,13.96c7.336,0,13.349-5.658,13.916-12.848C74.68,215.689,73.911,215.556,73.165,215.363z"/>
		<path id="Yellow_Ring_1_" fill="#F8B321" d="M45.268,214.645 M30.092,203.077c0.035-0.406,0.053-0.815,0.053-1.229
			c0-0.372-0.016-0.744-0.043-1.109c0.396-0.035,0.8-0.053,1.208-0.053c7.295,0,13.283,5.598,13.905,12.734
			c-0.83-0.088-1.634-0.26-2.402-0.513c-0.839-5.6-5.67-9.896-11.503-9.896C30.898,203.013,30.49,203.035,30.092,203.077z
			 M45.225,215.757c-0.567,7.189-6.581,12.848-13.916,12.848c-7.71,0-13.959-6.249-13.959-13.96c0-6.495,4.437-11.956,10.446-13.512
			c0.016,0.236,0.022,0.476,0.022,0.716c0,0.591-0.043,1.173-0.129,1.739c-4.652,1.521-8.015,5.896-8.015,11.057
			c0,6.425,5.21,11.635,11.634,11.635c6.183,0,11.238-4.826,11.61-10.916C43.666,215.556,44.434,215.689,45.225,215.757z"/>
		<path id="Black_Ring_1_" fill="#1F1D21" d="M32.472,201.849 M46.432,187.891c-7.336,0-13.351,5.659-13.916,12.849
			c0.789,0.067,1.558,0.199,2.304,0.394c0.371-6.091,5.427-10.915,11.612-10.915c6.424,0,11.632,5.208,11.632,11.631
			c0,5.163-3.36,9.538-8.013,11.06c-0.084,0.568-0.127,1.146-0.127,1.736c0,0.241,0.006,0.481,0.021,0.719
			c6.008-1.557,10.446-7.017,10.446-13.515C60.392,194.142,54.143,187.891,46.432,187.891z M46.432,213.482
			c-5.836,0-10.667-4.294-11.506-9.895c-0.769-0.252-1.57-0.424-2.402-0.511c0.623,7.136,6.61,12.731,13.908,12.731
			c0.407,0,0.81-0.018,1.207-0.052c-0.027-0.367-0.043-0.736-0.043-1.112c0-0.412,0.018-0.82,0.053-1.224
			C47.25,213.462,46.842,213.482,46.432,213.482z"/>
	</g>
</g>
</svg>
